<?xml version="1.0" encoding="UTF-8" standalone="no"?>
<svg
   xmlns:dc="http://purl.org/dc/elements/1.1/"
   xmlns:cc="http://creativecommons.org/ns#"
   xmlns:rdf="http://www.w3.org/1999/02/22-rdf-syntax-ns#"
   xmlns:svg="http://www.w3.org/2000/svg"
   xmlns="http://www.w3.org/2000/svg"
   xmlns:sodipodi="http://sodipodi.sourceforge.net/DTD/sodipodi-0.dtd"
   xmlns:inkscape="http://www.inkscape.org/namespaces/inkscape"
   width="420mm"
   height="297mm"
   viewBox="0 0 420 297"
   version="1.1"
   id="svg12823"
   inkscape:version="1.0.1 (3bc2e813f5, 2020-09-07)"
   sodipodi:docname="IMD-G02.svg">
  <defs
     id="defs12817" />
  <sodipodi:namedview
     id="base"
     pagecolor="#ffffff"
     bordercolor="#666666"
     borderopacity="1.0"
     inkscape:pageopacity="0.0"
     inkscape:pageshadow="2"
     inkscape:zoom="0.35"
     inkscape:cx="400"
     inkscape:cy="560"
     inkscape:document-units="mm"
     inkscape:current-layer="layer1"
     inkscape:document-rotation="0"
     showgrid="false"
     inkscape:showpageshadow="false"
     inkscape:snap-bbox="true"
     inkscape:bbox-paths="true"
     inkscape:bbox-nodes="true"
     inkscape:snap-bbox-edge-midpoints="true"
     inkscape:snap-bbox-midpoints="true"
     inkscape:snap-page="true"
     inkscape:window-width="1453"
     inkscape:window-height="1016"
     inkscape:window-x="232"
     inkscape:window-y="0"
     inkscape:window-maximized="0" />
  <metadata
     id="metadata12820">
    <rdf:RDF>
      <cc:Work
         rdf:about="">
        <dc:format>image/svg+xml</dc:format>
        <dc:type
           rdf:resource="http://purl.org/dc/dcmitype/StillImage" />
        <dc:title />
      </cc:Work>
    </rdf:RDF>
  </metadata>
  <g
     inkscape:label="Layer 1"
     inkscape:groupmode="layer"
     id="layer1">
    <g
       id="g98"
       inkscape:label="IMD-G02"
       transform="matrix(0.37007592,0,0,-0.37777854,-10.287691,307.51022)">
      <g
         id="g100"
         transform="translate(494.3,537.8)">
        <path
           d="M 0,0 -0.2,0.5 -0.4,0.9 -0.7,1.3 -1,1.7 -1.3,2.1 -1.7,2.4 -2.2,2.7 -2.6,2.9 -3.1,3.1 -3.6,3.2 H -4.1 -4.6 -5.1 L -5.6,3.1 -6,2.9 -6.5,2.7 -6.9,2.4 -7.3,2.1 -7.6,1.7 -8,1.3 -8.2,0.9 -8.4,0.4 -8.6,-0.1 -8.7,-0.6 v -0.5 -0.5 l 0.1,-0.5 0.1,-0.4 0.2,-0.5 0.2,-0.5 0.3,-0.4 0.4,-0.4 0.3,-0.3 0.4,-0.3 0.5,-0.2 0.4,-0.2 0.5,-0.2 h 0.5 l 0.5,-0.1 0.5,0.1 h 0.5 l 0.5,0.2 0.5,0.2 0.4,0.2 0.4,0.3 0.4,0.4 0.3,0.4 0.3,0.4 0.2,0.4 0.2,0.5 L 0,-2 0.1,-1.5 V -1 -0.5 L 0,0 m -5.1,-7.9 1.6,13.5"
           style="fill:none;stroke:#808080;stroke-width:0.51;stroke-linecap:butt;stroke-linejoin:miter;stroke-miterlimit:10;stroke-dasharray:none;stroke-opacity:1"
           id="path102" />
      </g>
      <text
         transform="matrix(0.96621558,0.25890065,0.25882274,-0.96592484,498.3337,533.8815)"
         style="font-variant:normal;font-weight:normal;font-stretch:normal;font-size:13.2284px;font-family:'Century Gothic';-inkscape-font-specification:CenturyGothic;writing-mode:lr-tb;fill:#808080;fill-opacity:1;fill-rule:nonzero;stroke:none"
         id="text106"><tspan
           x="0 7.3307166 14.661433 21.992149 25.657507 32.988224 40.318939"
           y="0"
           sodipodi:role="line"
           id="tspan104">300.00</tspan></text>
      <g
         id="g108"
         transform="translate(494.7,444.3)">
        <path
           d="M 0,0 0.2,0.5 V 1 1.5 L 0.1,2 0,2.5 -0.2,3 -0.4,3.4 -0.7,3.8 -1,4.2 -1.4,4.6 -1.8,4.9 -2.2,5.1 -2.7,5.3 -3.2,5.5 H -3.7 L -4.2,5.6 -4.7,5.5 H -5.2 L -5.7,5.3 -6.1,5.1 -6.6,4.9 -7,4.6 -7.4,4.3 -7.7,3.9 -8,3.5 -8.2,3 -8.4,2.5 -8.5,2.1 -8.6,1.6 V 1.1 0.6 l 0.1,-0.5 0.2,-0.5 0.2,-0.5 0.2,-0.4 0.3,-0.4 0.4,-0.4 0.4,-0.3 0.4,-0.3 0.5,-0.2 0.4,-0.2 0.5,-0.1 h 0.5 0.5 0.5 l 0.5,0.1 0.5,0.2 0.4,0.2 0.5,0.3 0.4,0.3 0.3,0.4 0.3,0.4 0.3,0.4 0.2,0.4 L 0,0 m -8.3,-4.3 8.2,10.9"
           style="fill:none;stroke:#000000;stroke-width:0.51;stroke-linecap:butt;stroke-linejoin:miter;stroke-miterlimit:10;stroke-dasharray:none;stroke-opacity:1"
           id="path110" />
      </g>
      <text
         transform="matrix(0.96621558,-0.25890065,-0.25882274,-0.96592484,496.313,438.9435)"
         style="font-variant:normal;font-weight:normal;font-stretch:normal;font-size:13.2284px;font-family:'Century Gothic';-inkscape-font-specification:CenturyGothic;writing-mode:lr-tb;fill:#000000;fill-opacity:1;fill-rule:nonzero;stroke:none"
         id="text114"><tspan
           x="0 7.3307166 14.661433 21.992149 29.322866 32.988224 40.318939 47.649658"
           y="0"
           sodipodi:role="line"
           id="tspan112">1000.00</tspan></text>
      <text
         transform="matrix(1.000301,0,0,-1,869.76674,346.1968)"
         style="font-variant:normal;font-weight:normal;font-stretch:normal;font-size:13.2283px;font-family:'Century Gothic';-inkscape-font-specification:CenturyGothic;writing-mode:lr-tb;fill:#808080;fill-opacity:1;fill-rule:nonzero;stroke:none"
         id="text118"><tspan
           x="0 7.3306842 14.661368 21.992052 29.322737 32.988079 40.318764 47.649445"
           y="0"
           sodipodi:role="line"
           id="tspan116">1000.00</tspan></text>
      <text
         transform="matrix(1.000103,0,0,-1,689.09352,133.90904)"
         style="font-variant:normal;font-weight:normal;font-stretch:normal;font-size:13.2283px;font-family:'Century Gothic';-inkscape-font-specification:CenturyGothic;writing-mode:lr-tb;fill:#000000;fill-opacity:1;fill-rule:nonzero;stroke:none"
         id="text122"><tspan
           x="0 9.7899504 18.455379 30.61344 38.207264 45.298363 53.32877 56.993385 68.48996 74.906349 78.570969 84.206802 91.297897 98.389 104.02483"
           y="0"
           sodipodi:role="line"
           id="tspan120">NUMBER OF TEETH</tspan></text>
      <text
         transform="matrix(1.000301,0,0,-1,865.50613,133.90904)"
         style="font-variant:normal;font-weight:normal;font-stretch:normal;font-size:13.2283px;font-family:'Century Gothic';-inkscape-font-specification:CenturyGothic;writing-mode:lr-tb;fill:#000000;fill-opacity:1;fill-rule:nonzero;stroke:none"
         id="text126"><tspan
           x="0 7.3306842"
           y="0"
           sodipodi:role="line"
           id="tspan124">20</tspan></text>
      <text
         transform="matrix(0.99985,0,0,-1,717.94444,118.24673)"
         style="font-variant:normal;font-weight:normal;font-stretch:normal;font-size:13.2283px;font-family:'Century Gothic';-inkscape-font-specification:CenturyGothic;writing-mode:lr-tb;fill:#000000;fill-opacity:1;fill-rule:nonzero;stroke:none"
         id="text130"><tspan
           x="0 12.154984 23.648653 33.489033 42.152267 48.262825"
           y="0"
           sodipodi:role="line"
           id="tspan128">MODULE</tspan></text>
      <text
         transform="matrix(1.000301,0,0,-1,865.50613,118.24673)"
         style="font-variant:normal;font-weight:normal;font-stretch:normal;font-size:13.2283px;font-family:'Century Gothic';-inkscape-font-specification:CenturyGothic;writing-mode:lr-tb;fill:#000000;fill-opacity:1;fill-rule:nonzero;stroke:none"
         id="text134"><tspan
           x="0 7.3306842"
           y="0"
           sodipodi:role="line"
           id="tspan132">50</tspan></text>
      <text
         transform="matrix(1.00003,0,0,-1,691.67304,102.58443)"
         style="font-variant:normal;font-weight:normal;font-stretch:normal;font-size:13.2283px;font-family:'Century Gothic';-inkscape-font-specification:CenturyGothic;writing-mode:lr-tb;fill:#000000;fill-opacity:1;fill-rule:nonzero;stroke:none"
         id="text138"><tspan
           x="0 7.8313885 15.861208 22.95179 29.53968 36.127571 44.792366 52.822186 59.912769 63.577118 73.366356 83.155586 94.69101 100.80267"
           y="0"
           sodipodi:role="line"
           id="tspan136">PRESSURE ANGLE</tspan></text>
      <text
         transform="matrix(1.000141,0,0,-1,849.43374,102.58443)"
         style="font-variant:normal;font-weight:normal;font-stretch:normal;font-size:13.2283px;font-family:'Century Gothic';-inkscape-font-specification:CenturyGothic;writing-mode:lr-tb;fill:#000000;fill-opacity:1;fill-rule:nonzero;stroke:none"
         id="text142"><tspan
           x="0 7.3295116 14.659023 18.323778 28.167021 35.258389"
           y="0"
           sodipodi:role="line"
           id="tspan140">20 DEG</tspan></text>
      <text
         transform="matrix(1.000045,0,0,-1,964.32153,132.36133)"
         style="font-variant:normal;font-weight:normal;font-stretch:normal;font-size:13.2283px;font-family:'Century Gothic';-inkscape-font-specification:CenturyGothic;writing-mode:lr-tb;fill:#000000;fill-opacity:1;fill-rule:nonzero;stroke:none"
         id="text146"><tspan
           x="0 8.6649265 18.454309 24.566059 31.656746 38.244736 44.832726 48.497131 59.993038 65.628548 74.663887 81.75457 89.784515 102.48425 105.47398 112.06197 119.15266 122.81706 129.40506 137.23656 144.32724 155.08234 158.07207 164.48808 167.47781 174.5685"
           y="0"
           sodipodi:role="line"
           id="tspan144">UNLESS OTHERWISE SPECIFIED</tspan></text>
      <g
         id="g148"
         transform="translate(964.338,130.9249)">
        <path
           d="M 0,0 H 184.411"
           style="fill:none;stroke:#000000;stroke-width:0.602;stroke-linecap:butt;stroke-linejoin:miter;stroke-miterlimit:10;stroke-dasharray:none;stroke-opacity:1"
           id="path150" />
      </g>
      <text
         transform="matrix(1.000083,0,0,-1,964.338,119.5322)"
         style="font-variant:normal;font-weight:normal;font-stretch:normal;font-size:13.2283px;font-family:'Century Gothic';-inkscape-font-specification:CenturyGothic;writing-mode:lr-tb;fill:#000000;fill-opacity:1;fill-rule:nonzero;stroke:none"
         id="text154"><tspan
           x="0 8.0567036 11.721247 18.984186 22.648729 29.977816 33.642361 40.971447 73.952332 83.742088 93.531845 105.06788 111.17986 118.27082 124.85905 128.52361 135.78654 139.45108 146.78017 150.44472 157.7738 167.61647 174.70743"
           y="0"
           sodipodi:role="line"
           id="tspan152">X ± 0.5 ANGLES ± 0.5DEG</tspan></text>
      <text
         transform="matrix(1.00028,0,0,-1,964.338,106.70075)"
         style="font-variant:normal;font-weight:normal;font-stretch:normal;font-size:13.2283px;font-family:'Century Gothic';-inkscape-font-specification:CenturyGothic;writing-mode:lr-tb;fill:#000000;fill-opacity:1;fill-rule:nonzero;stroke:none"
         id="text158"><tspan
           x="0 6.3513618 10.016627 16.367989 20.033255 27.297625 30.962889 38.293419 41.958683"
           y="0"
           sodipodi:role="line"
           id="tspan156">x.x ± 0.3</tspan></text>
      <text
         transform="matrix(1.000297,0,0,-1,964.338,93.869298)"
         style="font-variant:normal;font-weight:normal;font-stretch:normal;font-size:13.2283px;font-family:'Century Gothic';-inkscape-font-specification:CenturyGothic;writing-mode:lr-tb;fill:#000000;fill-opacity:1;fill-rule:nonzero;stroke:none"
         id="text162"><tspan
           x="0 6.35147 10.016797 16.368267 22.719736 26.385065 33.649559 37.314884 44.645538 48.310867"
           y="0"
           sodipodi:role="line"
           id="tspan160">x.xx ± 0.1</tspan></text>
      <text
         transform="matrix(1.00031,0,0,-1,964.338,81.037847)"
         style="font-variant:normal;font-weight:normal;font-stretch:normal;font-size:13.2283px;font-family:'Century Gothic';-inkscape-font-specification:CenturyGothic;writing-mode:lr-tb;fill:#000000;fill-opacity:1;fill-rule:nonzero;stroke:none"
         id="text166"><tspan
           x="0 6.3515525 10.016928 16.368481 22.720032 29.071585 32.736961 40.001549 43.666924 50.997673 54.663048 61.993797"
           y="0"
           sodipodi:role="line"
           id="tspan164">x.xxx ± 0.05</tspan></text>
      <text
         transform="matrix(0.99995,0,0,-1,964.338,55.374945)"
         style="font-variant:normal;font-weight:normal;font-stretch:normal;font-size:13.2283px;font-family:'Century Gothic';-inkscape-font-specification:CenturyGothic;writing-mode:lr-tb;fill:#000000;fill-opacity:1;fill-rule:nonzero;stroke:none"
         id="text170"><tspan
           x="0 6.5873642 15.621841 25.410294 33.439472 41.270233 44.934288 52.024303 61.865665 73.400169 80.490181 87.077545 90.7416 100.53005 110.3185 120.15987 123.82392 134.57799 146.07281 154.10199 163.89044 170.98045 179.00963 185.597"
           y="0"
           sodipodi:role="line"
           id="tspan168">SHARP EDGES AND CORNERS</tspan></text>
      <text
         transform="matrix(1.000089,0,0,-1,964.338,42.543494)"
         style="font-variant:normal;font-weight:normal;font-stretch:normal;font-size:13.2283px;font-family:'Century Gothic';-inkscape-font-specification:CenturyGothic;writing-mode:lr-tb;fill:#000000;fill-opacity:1;fill-rule:nonzero;stroke:none"
         id="text174"><tspan
           x="0 8.0302925 15.359424 19.023989 26.353119 38.511009 50.6689 54.333462 65.82988 73.860168 77.524734 84.853867 88.518433 95.847565 108.00546 120.16335 123.82791 130.17805 133.84262 141.17175 148.50089 158.34361 165.43462 176.97072"
           y="0"
           sodipodi:role="line"
           id="tspan172">R0.3MM OR 0.3MM x 45DEG</tspan></text>
      <text
         transform="matrix(0.999705,0,0,-1,786.58933,42.543494)"
         style="font-variant:normal;font-weight:normal;font-stretch:normal;font-size:13.2283px;font-family:'Century Gothic';-inkscape-font-specification:CenturyGothic;writing-mode:lr-tb;fill:#000000;fill-opacity:1;fill-rule:nonzero;stroke:none"
         id="text178"><tspan
           x="0 9.7860546 15.895726 22.005398 25.668556 35.507507 38.496223 50.649445 57.73772 67.523773 74.109528 77.098236 88.59024 98.376297 104.96204 108.62521 111.61391 121.39997 125.06313 137.21635"
           y="0"
           sodipodi:role="line"
           id="tspan176">ALL DIMENSIONS IN MM</tspan></text>
      <text
         transform="matrix(0.99994,0,0,-1,682.07253,42.543494)"
         style="font-variant:normal;font-weight:normal;font-stretch:normal;font-size:13.2283px;font-family:'Century Gothic';-inkscape-font-specification:CenturyGothic;writing-mode:lr-tb;fill:#000000;fill-opacity:1;fill-rule:nonzero;stroke:none"
         id="text182"><tspan
           x="0 6.5872979 17.341261 27.129616 33.240723 40.330666 43.994686 47.658707 54.986744 58.650764 65.978798"
           y="0"
           sodipodi:role="line"
           id="tspan180">SCALE: 1:20</tspan></text>
      <g
         id="g184"
         transform="translate(481.6,456.2)">
        <path
           d="m 0,0 -0.7,-0.8 -0.6,-0.9 -0.5,-0.8 -0.6,-0.9 -0.4,-0.9 -0.4,-1 -0.4,-1 -0.3,-0.9 -0.2,-1 -0.2,-1.1 -0.1,-1 -0.1,-1 v -1 l 0.1,-1.1 0.1,-1 0.2,-1 m 67.5,-18.1 0.7,0.8 0.6,0.8 0.6,0.9 0.5,0.9 0.5,0.9 0.4,0.9 0.3,1 0.3,1 0.3,1 0.1,1 0.2,1 v 1.1 1 1 l -0.2,1 -0.1,1.1 M -93,8.4 l 8.6,-3.8 0.8,2.8 -9.4,1"
           style="fill:none;stroke:#000000;stroke-width:0.51;stroke-linecap:butt;stroke-linejoin:miter;stroke-miterlimit:10;stroke-dasharray:none;stroke-opacity:1"
           id="path186" />
      </g>
      <g
         id="g188"
         transform="translate(387.9,503.7)">
        <path
           d="m 0,0 -0.6,1.9 -0.7,1.9 -0.7,1.9 -0.8,1.8 -0.8,1.8 -0.9,1.8 -0.9,1.8 -1,1.8 -1,1.7 -1.1,1.7 -1.1,1.7 -1.2,1.6 -1.2,1.6 -1.3,1.5 -1.3,1.6 -1.3,1.5 -1.4,1.4 -1.4,1.4 -1.5,1.4 -1.5,1.3 -1.5,1.3 -1.6,1.2 -1.6,1.2 -1.7,1.2 -1.6,1.1 -1.8,1 -1.7,1 -1.8,1 -1.7,0.9 -1.9,0.8 -1.8,0.8 -1.9,0.8 -1.8,0.7 -1.9,0.6 -2,0.6 -1.9,0.5 -1.9,0.5 -2,0.4 -2,0.4 -1.9,0.3 -2,0.3 -2,0.2 -2,0.1 -2,0.1 h -2 -2 l -2.1,-0.1 -2,-0.1 -2,-0.2 -1.9,-0.3 -2,-0.3 -2,-0.3 -2,-0.5 -1.9,-0.4 -1.9,-0.6 -2,-0.6 -1.9,-0.6 -1.8,-0.7 -1.9,-0.7 -1.8,-0.8 -1.9,-0.9 -1.7,-0.9 -1.8,-0.9 -1.7,-1 -1.8,-1.1 -1.6,-1.1 -1.7,-1.1 -1.6,-1.2 -1.6,-1.3 -1.5,-1.3 -1.5,-1.3 -1.5,-1.3 -1.4,-1.5 -1.4,-1.4 -1.4,-1.5 -1.3,-1.5 -1.2,-1.6 -1.2,-1.6 -1.2,-1.6 -1.1,-1.7 -1.1,-1.6 -1,-1.8 -1,-1.7 -0.9,-1.8 -0.9,-1.8 -0.8,-1.8 -0.8,-1.9 -0.7,-1.8 -0.7,-1.9 -0.6,-1.9 -0.6,-2 -0.5,-1.9 -0.4,-2 -0.4,-1.9 -0.4,-2 -0.3,-2 -0.2,-2 -0.2,-2 -0.1,-2 v -2 -2 -2 l 0.1,-2 0.2,-2 0.2,-2 0.3,-2 0.3,-2 0.4,-1.9 0.5,-2 0.5,-1.9 0.6,-1.9 0.6,-2 0.6,-1.9 0.8,-1.8 0.7,-1.9 0.9,-1.8 0.8,-1.8 1,-1.8 0.9,-1.7 1.1,-1.8 1,-1.7 1.2,-1.6 1.1,-1.6 1.2,-1.6 1.3,-1.6 1.3,-1.5 1.3,-1.5 1.4,-1.5 1.5,-1.4 1.4,-1.3 1.5,-1.4 1.6,-1.2 1.6,-1.3 1.6,-1.2 1.6,-1.1 1.7,-1.1 1.7,-1.1 1.7,-1 1.8,-0.9 1.8,-0.9 1.8,-0.9 1.8,-0.8 1.9,-0.7 1.9,-0.7 1.9,-0.7 1.9,-0.6 1.9,-0.5 2,-0.5 1.9,-0.4 2,-0.4 2,-0.3 2,-0.2 2,-0.2 2,-0.2 2,-0.1 h 2 2 l 2,0.1 2,0.2 2,0.2 2,0.2 2,0.3 1.9,0.4 2,0.4 1.9,0.5 2,0.5 1.9,0.6 1.9,0.6 1.9,0.7 1.8,0.8 1.9,0.8 1.8,0.8 1.8,0.9 1.8,1 1.7,1 1.7,1 1.7,1.1 1.6,1.2 1.6,1.2 1.6,1.2 1.6,1.3 1.5,1.3 1.4,1.4 1.5,1.4 1.4,1.4 1.3,1.5 1.3,1.5 1.3,1.6 1.2,1.6 1.1,1.6 1.2,1.7 1,1.7 1.1,1.7 1,1.8 0.9,1.7 0.9,1.8 0.8,1.9 0.8,1.8 0.7,1.9 0.7,1.9 0.6,1.9 0.5,1.9 0.5,2 0.5,1.9 0.4,2 0.3,1.9 0.3,2 0.2,2 0.2,2 0.1,2 0.1,2 v 2 l -0.1,2 -0.1,2 -0.2,2 -0.2,2 -0.3,2 -0.3,2 -0.4,2 -0.4,1.9 -0.5,2 L 0,0"
           style="fill:none;stroke:#c0c0c0;stroke-width:0.51;stroke-linecap:butt;stroke-linejoin:miter;stroke-miterlimit:10;stroke-dasharray:none;stroke-opacity:1"
           id="path190" />
      </g>
      <g
         id="g192"
         transform="translate(955.3,343.3)">
        <path
           d="M 0,0 -9.3,-1.5 V 1.4 L 0,0 m -141.7,0 9.4,1.4 v -2.9 l -9.4,1.5"
           style="fill:none;stroke:#808080;stroke-width:0.51;stroke-linecap:butt;stroke-linejoin:miter;stroke-miterlimit:10;stroke-dasharray:none;stroke-opacity:1"
           id="path194" />
      </g>
      <g
         id="g196"
         transform="translate(340.7,488.5)">
        <path
           d="M 0,0 9.4,1 8.6,3.8 0,0"
           style="fill:none;stroke:#808080;stroke-width:0.51;stroke-linecap:butt;stroke-linejoin:miter;stroke-miterlimit:10;stroke-dasharray:none;stroke-opacity:1"
           id="path198" />
      </g>
      <g
         id="g200"
         transform="translate(682,146.5)">
        <path
           d="M 0,0 V -15.7 M 127.2,0 V -15.7 M 0,-15.7 v -15.7 m 127.2,15.7 V -31.4 M 0,-31.4 V -47 m 127.2,15.6 V -47 M 254.4,0 v -15.7 m 0,0 v -15.7 m 0,0 V -47 M 0,0 H 127.2 M 0,-15.7 h 127.2 m 0,15.7 H 254.4 M 127.2,-15.7 H 254.4 M 0,-31.4 h 127.2 m 0,0 H 254.4 M 0,-47 h 127.2 m 0,0 h 127.2"
           style="fill:none;stroke:#000000;stroke-width:0.51;stroke-linecap:round;stroke-linejoin:round;stroke-miterlimit:10;stroke-dasharray:none;stroke-opacity:1"
           id="path202" />
      </g>
      <g
         id="g204"
         transform="translate(320.1721,483.7281)">
        <path
           d="M 0,0 V 20.906"
           style="fill:none;stroke:#000000;stroke-width:0.51;stroke-linecap:round;stroke-linejoin:round;stroke-miterlimit:10;stroke-dasharray:43.2, 3.6, 3.6, 3.6;stroke-dashoffset:38.147;stroke-opacity:1"
           id="path206" />
      </g>
      <g
         id="g208"
         transform="translate(319.4634,483.0194)">
        <path
           d="M 0,0 H -20.905"
           style="fill:none;stroke:#000000;stroke-width:0.51;stroke-linecap:round;stroke-linejoin:round;stroke-miterlimit:10;stroke-dasharray:43.2, 3.6, 3.6, 3.6;stroke-dashoffset:38.147;stroke-opacity:1"
           id="path210" />
      </g>
      <g
         id="g212"
         transform="translate(320.1721,482.3107)">
        <path
           d="M 0,0 V -20.905"
           style="fill:none;stroke:#000000;stroke-width:0.51;stroke-linecap:round;stroke-linejoin:round;stroke-miterlimit:10;stroke-dasharray:43.2, 3.6, 3.6, 3.6;stroke-dashoffset:38.147;stroke-opacity:1"
           id="path214" />
      </g>
      <g
         id="g216"
         transform="translate(320.8807,483.0194)">
        <path
           d="M 0,0 H 21.696"
           style="fill:none;stroke:#000000;stroke-width:0.51;stroke-linecap:round;stroke-linejoin:round;stroke-miterlimit:10;stroke-dasharray:43.2, 3.6, 3.6, 3.6;stroke-dashoffset:37.752;stroke-opacity:1"
           id="path218" />
      </g>
      <g
         id="g220"
         transform="translate(320.1,483)">
        <path
           d="M 0,0 V 0.3 M 0,0 H -0.3 M 0,0 V -0.4 M 0,0 h 0.4"
           style="fill:none;stroke:#000000;stroke-width:0.51;stroke-linecap:round;stroke-linejoin:round;stroke-miterlimit:10;stroke-dasharray:none;stroke-opacity:1"
           id="path222" />
      </g>
      <g
         id="g224"
         transform="translate(388.6,464.6)">
        <path
           d="M 0,0 158.3,-42.4 M 0,0 -136.9,36.7"
           style="fill:none;stroke:#000000;stroke-width:0.51;stroke-linecap:round;stroke-linejoin:round;stroke-miterlimit:10;stroke-dasharray:none;stroke-opacity:1"
           id="path226" />
      </g>
      <g
         id="g228"
         transform="translate(956.9,148)">
        <path
           d="M 0,0 V -112.5 M 0,0 H 198 M 0,-112.5 H 198 M 198,0 v -112.5"
           style="fill:none;stroke:#c0c0c0;stroke-width:0.51;stroke-linecap:round;stroke-linejoin:round;stroke-miterlimit:10;stroke-dasharray:none;stroke-opacity:1"
           id="path230" />
      </g>
      <g
         id="g232"
         transform="translate(28.3,28.3)">
        <path
           d="m 0,0 v 785.2 m 0,0 h 1133.9 m 0,0 V 0 m 0,0 H 0"
           style="fill:none;stroke:#c0c0c0;stroke-width:0.992;stroke-linecap:round;stroke-linejoin:round;stroke-miterlimit:10;stroke-dasharray:none;stroke-opacity:1"
           id="path234" />
      </g>
      <g
         id="g236"
         transform="translate(955.3,402.8)">
        <path
           d="M 0,0 V -62.4 M -141.7,0 V -62.4 M 0,-59.5 h -141.7"
           style="fill:none;stroke:#808080;stroke-width:0.51;stroke-linecap:round;stroke-linejoin:round;stroke-miterlimit:10;stroke-dasharray:none;stroke-opacity:1"
           id="path238" />
      </g>
      <g
         id="g240"
         transform="translate(340.7,488.5)">
        <path
           d="M 0,0 200.9,53.8 M 0,0 -41.1,-11"
           style="fill:none;stroke:#808080;stroke-width:0.51;stroke-linecap:round;stroke-linejoin:round;stroke-miterlimit:10;stroke-dasharray:none;stroke-opacity:1"
           id="path242" />
      </g>
      <g
         id="g244"
         transform="translate(388.6,464.6)">
        <path
           d="M 0,0 8.6,-3.8 9.4,-1"
           style="fill:#000000;fill-opacity:1;fill-rule:nonzero;stroke:none"
           id="path246" />
      </g>
      <g
         id="g248"
         transform="translate(955.3,343.3)">
        <path
           d="M 0,0 -9.3,-1.5 V 1.4 M -141.7,0 l 9.4,1.4 v -2.9"
           style="fill:#808080;fill-opacity:1;fill-rule:nonzero;stroke:none"
           id="path250" />
      </g>
      <g
         id="g252"
         transform="translate(340.7,488.5)">
        <path
           d="M 0,0 9.4,1 8.6,3.8"
           style="fill:#808080;fill-opacity:1;fill-rule:nonzero;stroke:none"
           id="path254" />
      </g>
      <g
         id="g256"
         transform="translate(311.6,559.6)">
        <path
           d="M 0,0 -0.1,0.2 -0.3,0.3 -0.4,0.5 -0.6,0.6 H -0.8 L -1,0.7 h -0.2 -0.2 m 12.3,-15.4 -0.6,0.1 H 9.7 9.1 8.5 7.9 7.3 6.7 l -0.6,-0.1 m 6.3,1.3 -0.1,-0.3 -0.1,-0.2 -0.1,-0.2 -0.2,-0.2 -0.2,-0.2 -0.3,-0.1 -0.2,-0.1 h -0.3 m 1.5,1.3 0.1,1.3 0.3,1.3 0.2,1.3 0.3,1.2 0.4,1.3 0.5,1.2 0.4,1.2 0.6,1.2 0.5,1.2 0.7,1.1 L 17,0 m 1.4,0.7 H 18.2 18 L 17.8,0.6 H 17.6 L 17.5,0.5 17.3,0.3 17.2,0.2 17,0 m 6,0 -0.6,0.1 -0.5,0.1 -0.6,0.1 -0.6,0.1 -0.6,0.1 H 19.6 L 19,0.6 18.4,0.7 m 5.7,-1.8 -0.1,0.2 v 0.2 l -0.2,0.2 -0.1,0.1 -0.2,0.1 -0.1,0.1 -0.2,0.1 L 23,0 m 1.4,-15.3 0.2,1.3 0.2,1.3 0.2,1.3 0.1,1.3 v 1.3 1.3 l -0.1,1.3 -0.2,1.3 -0.2,1.3 -0.2,1.3 -0.3,1.2 m 1.3,-15.9 -0.3,0.1 -0.2,0.2 -0.2,0.2 -0.1,0.2 -0.1,0.2 -0.1,0.3 v 0.2 0.3 m 5.5,-3.1 -0.5,0.2 -0.6,0.2 -0.5,0.2 -0.6,0.1 -0.6,0.2 -0.6,0.2 -0.5,0.2 -0.6,0.1 m 6.3,-0.7 -0.1,-0.2 -0.2,-0.2 -0.2,-0.2 -0.2,-0.1 -0.3,-0.1 h -0.2 -0.3 l -0.3,0.1 m 1.8,0.7 0.6,1.2 0.6,1.2 0.6,1.1 0.7,1.1 0.8,1.1 0.8,1 0.8,1 0.9,1 0.9,0.9 0.9,0.9 1,0.9 m 1.5,0.1 -0.2,0.1 -0.1,0.1 h -0.2 -0.2 l -0.2,-0.1 h -0.2 l -0.2,-0.1 -0.2,-0.1 m 5.7,-2 -0.6,0.3 -0.5,0.3 -0.5,0.3 -0.5,0.2 -0.5,0.3 -0.5,0.2 -0.5,0.3 -0.6,0.2 m 4.9,-3.4 v 0.2 0.2 l -0.1,0.2 -0.1,0.2 -0.1,0.2 -0.1,0.1 -0.2,0.1 -0.1,0.1 m -3.4,-14.9 0.6,1.1 0.6,1.2 0.5,1.2 0.5,1.2 0.4,1.2 0.4,1.3 0.3,1.3 0.3,1.2 0.2,1.3 0.2,1.3 0.1,1.3 m -3.7,-15.5 -0.2,0.2 -0.2,0.2 -0.1,0.2 -0.1,0.3 v 0.2 0.3 l 0.1,0.2 0.1,0.3 m 4.3,-4.7 -0.5,0.4 -0.5,0.3 -0.4,0.4 -0.5,0.3 -0.5,0.4 -0.5,0.3 -0.5,0.4 -0.5,0.3 m 5.8,-2.6 -0.2,-0.2 -0.2,-0.2 -0.3,-0.1 h -0.2 -0.3 -0.3 l -0.2,0.1 -0.2,0.2 m 1.9,0.2 0.9,0.9 0.9,0.9 1,0.9 1,0.8 1,0.8 1.1,0.8 1.1,0.7 1.1,0.6 1.2,0.6 1.2,0.6 1.2,0.5 m 1.5,-0.3 -0.2,0.1 -0.1,0.1 -0.2,0.1 -0.2,0.1 h -0.2 -0.2 l -0.2,-0.1 h -0.2 m 4.8,-3.6 -0.4,0.4 -0.4,0.5 -0.4,0.4 -0.5,0.4 -0.4,0.4 -0.4,0.4 -0.4,0.4 -0.4,0.4 m 3.5,-4.8 0.1,0.2 v 0.2 0.2 0.2 0.2 l -0.1,0.2 -0.1,0.2 -0.1,0.1 m -7.9,-13.1 1,0.8 0.9,1 0.9,0.9 0.8,1.1 0.8,1 0.7,1.1 0.7,1.1 0.7,1.1 0.6,1.2 0.5,1.1 0.5,1.2 m -8.3,-13.6 -0.1,0.2 -0.1,0.3 v 0.3 l -0.1,0.2 0.1,0.3 0.1,0.2 0.1,0.3 0.2,0.2 m 2.7,-5.8 -0.4,0.5 -0.3,0.4 -0.4,0.5 -0.3,0.5 -0.4,0.5 -0.3,0.5 -0.4,0.5 -0.4,0.4 m 4.7,-4.3 -0.2,-0.1 -0.3,-0.1 h -0.2 l -0.3,0.1 h -0.2 l -0.3,0.2 -0.2,0.2 -0.1,0.2 m 1.8,-0.5 1.2,0.6 1.2,0.6 1.1,0.6 1.3,0.4 1.2,0.5 1.2,0.4 1.3,0.3 1.3,0.2 1.3,0.3 1.3,0.1 1.3,0.1 m 3.2,-6.3 0.1,0.1 0.1,0.2 0.1,0.2 v 0.2 0.2 0.2 0.2 l -0.1,0.2 m -11.5,-10.1 1.2,0.5 1.1,0.6 1.1,0.7 1.1,0.7 1.1,0.7 1.1,0.8 1,0.8 0.9,0.9 1,0.9 0.9,1 0.8,1 M 66.7,-55.2 66.6,-55 v 0.3 l 0.1,0.3 v 0.2 l 0.2,0.3 0.1,0.2 0.2,0.1 0.3,0.2 m 0.7,-6.4 -0.2,0.6 -0.1,0.6 -0.2,0.6 -0.2,0.5 -0.2,0.6 -0.2,0.6 -0.2,0.5 -0.2,0.6 m 3.1,-5.6 h -0.2 -0.3 l -0.2,0.1 -0.3,0.1 -0.2,0.2 -0.2,0.2 -0.1,0.2 -0.1,0.2 m 1.6,-1 1.3,0.3 1.3,0.2 1.3,0.1 1.3,0.1 h 1.3 1.3 l 1.3,-0.1 1.3,-0.1 1.3,-0.2 1.3,-0.2 1.3,-0.3 m 1.1,-7.1 0.2,0.1 0.1,0.2 0.1,0.1 0.1,0.2 0.1,0.2 v 0.2 l 0.1,0.2 -0.1,0.2 m -14,-6.1 1.2,0.2 1.3,0.2 1.3,0.3 1.3,0.3 1.2,0.4 1.3,0.4 1.2,0.5 1.2,0.5 1.1,0.6 1.2,0.6 1.1,0.7 m -14.7,-6.1 v 0.2 l 0.1,0.3 0.1,0.2 0.1,0.2 0.2,0.2 0.2,0.2 0.3,0.1 h 0.3 M 70.5,-79 v 0.6 0.6 0.6 0.6 0.6 0.6 0.6 0.6 m 1.3,-6.3 -0.3,0.1 -0.3,0.1 -0.2,0.1 -0.2,0.2 -0.1,0.2 -0.1,0.3 -0.1,0.2 v 0.3 m 1.3,-1.5 1.2,-0.1 1.3,-0.3 1.3,-0.2 1.3,-0.4 1.2,-0.3 1.3,-0.5 1.2,-0.4 1.2,-0.6 1.1,-0.6 1.2,-0.6 1.1,-0.7 m 0.6,-1.3 0.1,0.2 -0.1,0.2 v 0.2 l -0.1,0.1 -0.1,0.2 -0.1,0.2 -0.1,0.1 -0.2,0.1 m -0.1,-5.9 0.1,0.6 0.1,0.5 0.1,0.6 0.1,0.6 0.1,0.5 0.1,0.6 0.1,0.6 v 0.6 m -1.7,-5.7 h 0.2 l 0.1,0.1 0.2,0.2 0.2,0.1 0.1,0.1 0.1,0.2 0.1,0.2 v 0.2 m -15.3,-1.4 1.3,-0.3 1.3,-0.1 1.3,-0.2 1.3,-0.1 h 1.3 1.3 l 1.3,0.1 1.3,0.2 1.3,0.1 1.3,0.3 1.3,0.3 m -15.9,-1.3 0.1,0.2 0.1,0.3 0.2,0.2 0.2,0.1 0.3,0.1 0.2,0.1 h 0.3 0.2 m -2.3,-7.3 1.2,-0.6 1.1,-0.6 1.1,-0.6 1.1,-0.7 1.1,-0.8 1.1,-0.8 1,-0.8 0.9,-0.9 1,-0.9 0.9,-0.9 0.8,-1 m 0.2,-1.5 0.1,0.1 v 0.2 0.2 0.2 0.2 l -0.1,0.2 -0.1,0.2 -0.1,0.2 m -1.9,-5.7 0.3,0.5 0.2,0.6 0.3,0.5 0.3,0.5 0.2,0.5 0.3,0.5 0.2,0.5 0.3,0.6 m -3.4,-4.9 h 0.2 0.2 l 0.2,0.1 0.1,0.1 0.2,0.1 0.2,0.1 0.1,0.2 0.1,0.1 m -15,3.4 1.2,-0.6 1.2,-0.6 1.1,-0.5 1.3,-0.5 1.2,-0.4 1.2,-0.4 1.3,-0.3 1.3,-0.3 1.3,-0.2 1.3,-0.2 1.3,-0.1 m -15.5,3.7 0.1,0.2 0.2,0.2 0.3,0.1 0.2,0.1 h 0.3 0.2 l 0.3,-0.1 0.2,-0.1 m -4.7,-4.3 0.4,0.5 0.4,0.5 0.3,0.4 0.4,0.5 0.3,0.5 0.4,0.5 0.3,0.5 0.4,0.5 m -2.7,-5.8 -0.2,0.2 -0.1,0.2 -0.1,0.3 -0.1,0.2 0.1,0.3 v 0.2 l 0.1,0.3 0.1,0.2 m 0.2,-1.9 1,-0.9 0.9,-0.9 0.9,-1 0.8,-1 0.8,-1.1 0.7,-1 0.7,-1.1 0.7,-1.2 0.6,-1.1 0.5,-1.2 0.5,-1.2 m -0.2,-1.5 0.1,0.2 0.1,0.1 0.1,0.2 v 0.2 0.2 0.2 0.2 l -0.1,0.2 m -3.5,-4.8 0.4,0.4 0.4,0.4 0.4,0.4 0.4,0.4 0.5,0.5 0.4,0.4 0.4,0.4 0.4,0.4 m -4.8,-3.6 h 0.2 0.2 0.2 0.2 0.2 l 0.2,0.1 0.1,0.1 0.2,0.1 m -13.2,7.9 0.9,-1 0.9,-0.9 1,-0.9 1,-0.8 1,-0.8 1.1,-0.7 1.1,-0.7 1.1,-0.7 1.2,-0.6 1.2,-0.5 1.2,-0.6 m -13.6,8.3 0.2,0.2 0.2,0.1 h 0.3 0.3 0.2 l 0.3,-0.1 0.2,-0.1 0.2,-0.2 m -5.8,-2.7 0.5,0.4 0.5,0.3 0.5,0.4 0.5,0.3 0.5,0.4 0.4,0.3 0.5,0.4 0.5,0.3 m -4.3,-4.7 -0.1,0.3 -0.1,0.3 v 0.2 0.3 l 0.1,0.2 0.1,0.3 0.2,0.2 0.2,0.1 m -0.4,-1.9 0.6,-1.1 0.6,-1.2 0.5,-1.2 0.5,-1.2 0.4,-1.2 0.4,-1.2 0.3,-1.3 0.3,-1.3 0.2,-1.3 0.2,-1.3 0.1,-1.3 m -0.7,-1.3 0.1,0.1 0.2,0.1 0.1,0.2 0.1,0.2 0.1,0.1 0.1,0.2 v 0.2 0.2 m -4.9,-3.4 0.6,0.2 0.5,0.3 0.5,0.3 0.5,0.2 0.5,0.3 0.5,0.2 0.5,0.3 0.6,0.3 m -5.7,-1.9 0.2,-0.1 0.2,-0.1 0.2,-0.1 h 0.2 0.2 0.2 0.1 l 0.2,0.1 m -10.1,11.5 0.6,-1.2 0.6,-1.1 0.6,-1.1 0.7,-1.1 0.8,-1.1 0.8,-1.1 0.8,-1 0.9,-0.9 0.9,-1 0.9,-0.9 1,-0.8 m -10.4,12.1 h 0.3 l 0.3,0.1 0.2,-0.1 H 31 l 0.2,-0.2 0.2,-0.1 0.2,-0.2 0.1,-0.3 m -6.3,-0.7 0.6,0.2 0.5,0.1 0.6,0.2 0.6,0.2 0.6,0.2 0.5,0.2 0.6,0.2 0.5,0.2 m -5.5,-3.2 v 0.3 0.3 l 0.1,0.2 0.1,0.3 0.1,0.2 0.2,0.2 0.2,0.1 0.3,0.1 m -1,-1.7 0.2,-1.2 0.2,-1.3 0.2,-1.3 0.1,-1.3 v -1.3 -1.3 l -0.1,-1.3 -0.2,-1.3 -0.2,-1.3 -0.2,-1.3 -0.3,-1.3 m -1.1,-1 h 0.2 l 0.2,0.1 0.1,0.1 0.2,0.1 0.1,0.2 0.2,0.1 v 0.2 l 0.1,0.2 m -5.7,-1.8 0.6,0.1 0.6,0.1 0.5,0.1 0.6,0.1 0.6,0.1 0.6,0.1 0.5,0.1 0.6,0.1 m -12.1,14.6 h 0.3 l 0.2,-0.1 0.3,-0.1 0.2,-0.1 0.2,-0.2 0.1,-0.3 0.1,-0.2 0.1,-0.3 m -6.3,1.3 h 0.6 0.6 0.6 0.6 0.6 0.6 0.6 0.6 m -6.2,-1.3 v 0.3 l 0.1,0.2 0.2,0.3 0.2,0.2 0.2,0.1 0.2,0.1 0.3,0.1 h 0.2 m -1.4,-1.3 -0.2,-1.3 -0.2,-1.2 -0.3,-1.3 -0.3,-1.3 -0.4,-1.2 -0.4,-1.3 -0.5,-1.2 -0.5,-1.2 -0.6,-1.1 -0.6,-1.2 -0.7,-1.1 m -1.4,-0.7 h 0.2 l 0.2,0.1 h 0.2 l 0.2,0.1 0.2,0.1 0.1,0.1 0.2,0.1 0.1,0.2 m -6,0.1 0.6,-0.1 0.6,-0.1 0.6,-0.1 0.5,-0.1 0.6,-0.1 0.6,-0.1 0.5,-0.1 0.6,-0.1 m -5.7,1.8 0.1,-0.2 0.1,-0.2 0.1,-0.1 0.1,-0.2 0.2,-0.1 0.2,-0.1 0.2,-0.1 H -6 m -1.4,15.2 -0.2,-1.2 -0.2,-1.3 -0.1,-1.3 -0.1,-1.3 v -1.3 -1.3 l 0.1,-1.3 0.1,-1.3 0.2,-1.3 0.2,-1.3 0.3,-1.3 m -1.3,15.9 0.3,-0.1 0.2,-0.1 0.2,-0.2 0.2,-0.2 0.1,-0.3 0.1,-0.2 v -0.3 l -0.1,-0.3 m -5.5,3.2 0.6,-0.2 0.5,-0.2 0.6,-0.2 0.6,-0.2 0.5,-0.2 0.6,-0.2 0.6,-0.1 0.5,-0.2 m -6.3,0.7 0.1,0.3 0.2,0.2 0.2,0.1 0.3,0.2 h 0.2 l 0.3,0.1 0.2,-0.1 h 0.3 m -1.8,-0.8 -0.5,-1.2 -0.6,-1.1 -0.7,-1.1 -0.7,-1.1 -0.7,-1.1 -0.8,-1.1 -0.9,-1 -0.8,-0.9 -0.9,-1 -1,-0.9 -1,-0.8 m -1.5,-0.2 0.2,-0.1 h 0.2 0.2 0.2 0.2 l 0.2,0.1 0.2,0.1 0.1,0.1 m -5.6,1.9 0.5,-0.3 0.5,-0.3 0.5,-0.2 0.5,-0.3 0.5,-0.2 0.6,-0.3 0.5,-0.3 0.5,-0.2 m -4.8,3.4 v -0.2 -0.2 -0.2 l 0.1,-0.1 0.1,-0.2 0.2,-0.2 0.1,-0.1 0.2,-0.1 m 3.4,14.9 -0.7,-1.1 -0.5,-1.2 -0.6,-1.2 -0.5,-1.2 -0.4,-1.2 -0.4,-1.2 -0.3,-1.3 -0.3,-1.3 -0.2,-1.3 -0.1,-1.3 -0.1,-1.3 m 3.6,15.5 0.2,-0.1 0.2,-0.2 0.1,-0.3 0.1,-0.2 0.1,-0.3 -0.1,-0.2 v -0.3 l -0.1,-0.3 m -4.3,4.7 0.4,-0.3 0.5,-0.4 0.5,-0.3 0.5,-0.4 0.5,-0.3 0.4,-0.4 0.5,-0.3 0.5,-0.4 m -5.8,2.7 0.2,0.2 0.3,0.1 0.2,0.1 h 0.3 0.2 0.3 l 0.2,-0.1 0.3,-0.2 m -2,-0.1 -0.9,-1 -0.9,-0.9 -1,-0.9 -1,-0.8 -1,-0.8 -1.1,-0.7 -1.1,-0.7 -1.1,-0.7 -1.2,-0.6 -1.1,-0.5 -1.2,-0.6 m -1.5,0.3 0.1,-0.1 0.2,-0.1 0.2,-0.1 h 0.2 0.2 0.2 0.2 0.2 m -4.8,3.6 0.4,-0.4 0.4,-0.4 0.4,-0.4 0.4,-0.5 0.4,-0.4 0.4,-0.4 0.4,-0.4 0.5,-0.4 m -3.6,4.8 -0.1,-0.2 v -0.2 -0.2 -0.2 l 0.1,-0.2 0.1,-0.2 0.1,-0.1 0.1,-0.2 m 7.8,13.2 -0.9,-0.9 -0.9,-0.9 -0.9,-1 -0.8,-1 -0.8,-1.1 -0.8,-1 -0.7,-1.1 -0.6,-1.2 -0.6,-1.1 -0.6,-1.2 -0.5,-1.2 m 8.3,13.6 0.1,-0.2 0.1,-0.3 0.1,-0.2 v -0.3 l -0.1,-0.2 v -0.3 l -0.2,-0.2 -0.2,-0.2 m -2.6,5.8 0.3,-0.5 0.4,-0.5 0.3,-0.5 0.4,-0.5 0.3,-0.5 0.4,-0.4 0.3,-0.5 0.4,-0.5 m -4.7,4.3 0.2,0.1 0.3,0.1 h 0.3 0.2 l 0.3,-0.1 0.2,-0.1 0.2,-0.2 0.2,-0.2 m -1.9,0.4 -1.1,-0.6 -1.2,-0.6 -1.2,-0.5 -1.2,-0.5 -1.2,-0.4 -1.3,-0.4 -1.3,-0.3 -1.2,-0.3 -1.3,-0.2 -1.3,-0.2 -1.3,-0.1 m -1.4,0.7 0.2,-0.1 0.1,-0.2 0.1,-0.1 0.2,-0.1 0.2,-0.1 0.2,-0.1 h 0.2 0.2 m -3.5,4.9 0.3,-0.6 0.2,-0.5 0.3,-0.5 0.3,-0.5 0.2,-0.5 0.3,-0.5 0.3,-0.6 0.2,-0.5 m -1.9,5.7 -0.1,-0.2 -0.1,-0.2 v -0.2 l -0.1,-0.2 v -0.2 -0.2 l 0.1,-0.2 v -0.1 m 11.6,10.1 -1.2,-0.6 -1.2,-0.6 -1.1,-0.6 -1.1,-0.7 -1.1,-0.8 -1,-0.8 -1,-0.8 -1,-0.9 -0.9,-0.9 -0.9,-0.9 -0.9,-1 m 12.1,10.4 0.1,-0.3 v -0.3 -0.2 l -0.1,-0.3 -0.1,-0.2 -0.2,-0.2 -0.2,-0.2 -0.2,-0.1 m -0.7,6.3 0.1,-0.6 0.2,-0.6 0.2,-0.5 0.1,-0.6 0.2,-0.6 0.2,-0.5 0.2,-0.6 0.2,-0.5 m -3.1,5.5 h 0.3 0.2 l 0.3,-0.1 0.2,-0.1 0.2,-0.1 0.2,-0.2 0.2,-0.3 0.1,-0.2 m -1.7,1 -1.3,-0.3 -1.3,-0.1 -1.3,-0.2 -1.3,-0.1 h -1.3 -1.3 l -1.3,0.1 -1.3,0.2 -1.3,0.1 -1.3,0.3 -1.2,0.3 m -1.1,1.1 0.1,-0.2 0.1,-0.2 0.1,-0.2 0.1,-0.1 0.1,-0.1 0.2,-0.2 0.2,-0.1 h 0.2 m -1.8,5.7 0.1,-0.6 0.1,-0.6 v -0.6 l 0.1,-0.5 0.1,-0.6 0.1,-0.6 0.1,-0.5 0.1,-0.6 m -0.1,5.9 -0.1,-0.1 -0.2,-0.1 -0.1,-0.2 -0.1,-0.2 v -0.1 l -0.1,-0.2 v -0.2 -0.2 m 14.1,6 -1.3,-0.1 -1.3,-0.3 -1.3,-0.2 -1.2,-0.4 -1.3,-0.3 -1.2,-0.5 -1.2,-0.4 -1.2,-0.6 -1.2,-0.6 -1.1,-0.6 -1.2,-0.7 m 14.8,6.2 -0.1,-0.3 v -0.2 l -0.1,-0.3 -0.2,-0.2 -0.2,-0.2 -0.2,-0.1 -0.2,-0.1 -0.3,-0.1 m 1.3,6.3 -0.1,-0.6 v -0.6 -0.6 -0.6 -0.6 -0.6 -0.6 l 0.1,-0.6 m -1.3,6.2 h 0.3 l 0.2,-0.1 0.2,-0.2 0.2,-0.2 0.2,-0.2 0.1,-0.2 V -74 l 0.1,-0.2 m -1.3,1.4 -1.3,0.2 -1.3,0.2 -1.3,0.3 -1.2,0.3 -1.3,0.4 -1.2,0.4 -1.2,0.5 -1.2,0.5 -1.2,0.6 -1.1,0.6 -1.2,0.7 m -0.6,1.4 v -0.2 -0.2 l 0.1,-0.2 v -0.2 l 0.1,-0.2 0.1,-0.1 0.2,-0.2 0.1,-0.1 m 0.1,5.9 -0.1,-0.5 -0.1,-0.6 -0.1,-0.6 -0.1,-0.5 -0.1,-0.6 v -0.6 l -0.1,-0.6 -0.1,-0.5 m 1.8,5.7 -0.2,-0.1 -0.2,-0.1 -0.2,-0.1 -0.1,-0.1 -0.1,-0.2 -0.1,-0.2 -0.1,-0.2 -0.1,-0.2 m 15.3,1.4 -1.3,0.3 -1.3,0.2 -1.3,0.1 -1.3,0.1 h -1.3 -1.3 l -1.3,-0.1 -1.3,-0.1 -1.3,-0.2 -1.3,-0.2 -1.2,-0.3 m 15.9,1.2 -0.1,-0.2 -0.2,-0.2 -0.2,-0.2 -0.2,-0.2 -0.2,-0.1 -0.3,-0.1 h -0.2 -0.3 m 3.1,5.6 -0.2,-0.6 -0.2,-0.5 -0.2,-0.6 -0.2,-0.6 -0.1,-0.5 -0.2,-0.6 -0.2,-0.6 -0.1,-0.6 m 0.7,6.4 0.2,-0.2 0.2,-0.1 0.2,-0.2 0.1,-0.3 0.1,-0.2 v -0.3 -0.3 l -0.1,-0.2 m -0.7,1.8 -1.2,0.5 -1.2,0.6 -1.1,0.7 -1.1,0.7 -1.1,0.7 -1,0.8 -1,0.8 -1,0.9 -0.9,0.9 -0.9,1 -0.9,1 m -0.2,1.5 v -0.2 l -0.1,-0.2 v -0.2 -0.2 l 0.1,-0.2 v -0.2 l 0.1,-0.2 0.1,-0.1 m 1.9,5.6 -0.2,-0.5 -0.3,-0.5 -0.3,-0.5 -0.2,-0.5 -0.3,-0.6 -0.3,-0.5 -0.2,-0.5 -0.3,-0.5 m 3.5,4.8 h -0.2 -0.2 -0.2 l -0.2,-0.1 -0.2,-0.1 -0.1,-0.2 -0.1,-0.1 -0.2,-0.2 m 15,-3.4 -1.1,0.6 -1.2,0.6 -1.2,0.6 -1.2,0.4 -1.2,0.5 -1.3,0.4 -1.3,0.3 -1.2,0.2 -1.3,0.3 -1.3,0.1 -1.3,0.1 m 15.5,-3.6 -0.2,-0.2 -0.2,-0.2 -0.2,-0.2 h -0.3 l -0.2,-0.1 h -0.3 l -0.3,0.1 -0.2,0.1 m 4.7,4.3 -0.4,-0.4 -0.3,-0.5 -0.4,-0.5 -0.3,-0.5 -0.4,-0.5 -0.3,-0.5 -0.4,-0.4 -0.3,-0.5 m 2.6,5.8 0.2,-0.2 0.2,-0.3 V -37 l 0.1,-0.3 v -0.2 l -0.1,-0.3 -0.1,-0.3 -0.1,-0.2 m -0.2,2 -0.9,0.8 -0.9,1 -0.9,0.9 -0.8,1.1 -0.8,1 -0.8,1.1 -0.7,1.1 -0.6,1.1 -0.6,1.2 -0.6,1.1 -0.5,1.2 m 0.3,1.5 -0.1,-0.1 -0.1,-0.2 -0.1,-0.2 -0.1,-0.2 v -0.2 -0.2 -0.2 l 0.1,-0.2 m 3.6,4.8 -0.5,-0.4 -0.4,-0.4 -0.4,-0.4 -0.4,-0.4 -0.4,-0.4 -0.4,-0.4 -0.4,-0.5 -0.4,-0.4 m 4.8,3.6 h -0.2 l -0.2,0.1 h -0.2 -0.2 l -0.2,-0.1 -0.2,-0.1 -0.2,-0.1 -0.1,-0.1 m 13.1,-7.8 -0.9,0.9 -0.9,0.9 -1,0.9 -1,0.8 -1,0.8 -1.1,0.8 -1.1,0.7 -1.1,0.6 -1.2,0.6 -1.1,0.6 -1.2,0.5 m 13.6,-8.3 -0.3,-0.2 -0.2,-0.1 h -0.3 -0.2 -0.3 l -0.2,0.1 -0.3,0.2 -0.2,0.2 m 5.8,2.6 -0.5,-0.3 -0.5,-0.4 -0.4,-0.3 -0.5,-0.4 -0.5,-0.3 -0.5,-0.4 -0.5,-0.3 -0.4,-0.4 m 4.3,4.7 0.1,-0.3 v -0.2 l 0.1,-0.3 -0.1,-0.2 -0.1,-0.3 -0.1,-0.2 -0.2,-0.2 -0.2,-0.2 m 0.5,1.9 -0.7,1.1 -0.5,1.2 -0.6,1.2 -0.5,1.2 -0.4,1.2 -0.4,1.3 -0.3,1.3 -0.3,1.2 -0.2,1.3 -0.1,1.3 -0.1,1.3 m 0.7,1.3 -0.2,-0.1 -0.1,-0.1 -0.2,-0.1 -0.1,-0.2 -0.1,-0.2 v -0.2 -0.2 -0.2 m 4.8,3.4 -0.5,-0.2 -0.5,-0.3 -0.6,-0.2 -0.5,-0.3 -0.5,-0.2 -0.5,-0.3 -0.5,-0.3 -0.5,-0.3 m 5.6,2 -0.1,0.1 -0.2,0.1 h -0.2 L -24,-6 h -0.2 -0.2 l -0.2,-0.1 -0.2,-0.1 m 10.1,-11.5 -0.5,1.2 -0.6,1.2 -0.7,1.1 -0.7,1.1 -0.7,1.1 -0.8,1 -0.9,1 -0.8,1 -0.9,0.9 -1,0.9 -1,0.9 m 10.4,-12.1 -0.3,-0.1 h -0.2 -0.3 l -0.2,0.1 -0.3,0.1 -0.2,0.2 -0.2,0.2 -0.1,0.2 m 6.3,0.7 -0.5,-0.1 -0.6,-0.2 -0.6,-0.2 -0.5,-0.2 -0.6,-0.1 -0.6,-0.2 -0.5,-0.2 -0.6,-0.2 m 5.5,3.1 0.1,-0.3 v -0.2 l -0.1,-0.3 -0.1,-0.2 -0.2,-0.2 -0.2,-0.2 -0.2,-0.2 -0.3,-0.1 m 1,1.7 -0.2,1.3 -0.2,1.3 -0.1,1.3 -0.1,1.3 v 1.3 1.3 l 0.1,1.3 0.1,1.3 0.2,1.3 0.2,1.3 0.3,1.2 M -6,0 -6.1,-0.1 -6.3,-0.2 -6.5,-0.3 -6.7,-0.4 -6.8,-0.5 -6.9,-0.7 -7,-0.9 -7.1,-1.1 M -1.4,0.7 -2,0.6 -2.5,0.5 H -3.1 L -3.7,0.4 -4.2,0.3 -4.8,0.2 -5.4,0.1 -6,0 m 35.8,-76.6 v 1 l -0.1,1 -0.1,1 -0.2,1.1 -0.2,1 -0.3,0.9 -0.3,1 -0.4,1 -0.4,0.9 -0.5,0.9 -0.5,0.9 -0.5,0.9 -0.6,0.9 -0.6,0.8 -0.7,0.8 -0.7,0.7 -0.7,0.7 -0.8,0.7 -0.8,0.7 -0.8,0.6 -0.9,0.5 -0.8,0.5 -1,0.5 -0.9,0.5 -0.9,0.3 -1,0.4 -1,0.3 -1,0.2 -1,0.2 -1,0.2 -1,0.1 H 9 8 7 l -1,-0.1 -1.1,-0.2 -1,-0.2 -1,-0.2 -0.9,-0.3 -1,-0.4 -1,-0.3 -0.9,-0.5 -0.9,-0.5 -0.9,-0.5 -0.9,-0.5 -0.8,-0.6 -0.8,-0.7 -0.8,-0.7 -0.7,-0.7 -0.7,-0.7 -0.7,-0.8 -0.6,-0.8 -0.6,-0.9 -0.5,-0.9 -0.5,-0.9 -0.5,-0.9 -0.4,-0.9 -0.3,-1 -0.4,-1 -0.2,-0.9 -0.2,-1 -0.2,-1.1 -0.1,-1 -0.1,-1 v -1 -1.1 l 0.1,-1 0.1,-1 0.2,-1 0.2,-1 0.2,-1 0.4,-1 0.3,-0.9 0.4,-1 0.5,-0.9 0.5,-0.9 0.5,-0.9 0.6,-0.8 0.6,-0.8 0.7,-0.8 0.7,-0.8 0.7,-0.7 0.8,-0.7 0.8,-0.6 0.8,-0.6 0.9,-0.6 0.9,-0.5 0.9,-0.5 0.9,-0.4 1,-0.4 1,-0.3 0.9,-0.3 1,-0.3 1,-0.2 1.1,-0.1 1,-0.1 1,-0.1 h 1 l 1.1,0.1 1,0.1 1,0.1 1,0.2 1,0.3 1,0.3 1,0.3 0.9,0.4 0.9,0.4 1,0.5 0.8,0.5 0.9,0.6 0.8,0.6 0.8,0.6 0.8,0.7 0.7,0.7 0.7,0.8 0.7,0.8 0.6,0.8 0.6,0.8 0.5,0.9 0.5,0.9 0.5,0.9 0.4,1 0.4,0.9 0.3,1 0.3,1 0.2,1 0.2,1 0.1,1 0.1,1 v 1.1 m 56,9.9 v 0.5 l -0.1,0.6 -0.1,0.6 -0.1,0.6 -0.1,0.5 -0.1,0.6 -0.1,0.6 -0.1,0.5 m -68.1,-91.1 0.2,-0.2 0.1,-0.1 0.2,-0.1 0.1,-0.1 0.2,-0.1 H 18 l 0.2,-0.1 h 0.2 M 6.1,-14.7 H 5.9 l -0.3,0.1 -0.2,0.1 -0.2,0.2 -0.2,0.2 -0.2,0.2 -0.1,0.2 v 0.3 m 62.8,-86.4 -0.3,0.1 -0.2,0.2 -0.1,0.2 -0.2,0.2 v 0.3 l -0.1,0.2 v 0.3 l 0.1,0.3 m -54.3,-41.9 0.1,-1.3 0.3,-1.2 0.2,-1.3 0.3,-1.3 0.4,-1.2 0.5,-1.3 0.4,-1.2 0.6,-1.2 0.5,-1.1 0.7,-1.2 0.6,-1.1 m 62,110 -0.3,0.5 -0.2,0.5 -0.3,0.5 -0.2,0.6 -0.3,0.5 -0.3,0.5 -0.2,0.5 -0.3,0.5 m 8.2,-23 v 0.2 l -0.1,0.2 -0.1,0.2 -0.1,0.2 -0.2,0.1 -0.2,0.1 -0.1,0.1 -0.2,0.1 M 4.7,-13.4 4.5,-12.1 4.3,-10.8 4,-9.5 3.7,-8.3 3.3,-7 2.9,-5.8 2.4,-4.6 1.9,-3.4 1.3,-2.2 0.7,-1.1 0,0 m 76.9,-39.2 -0.1,0.2 -0.1,0.1 -0.2,0.2 -0.2,0.1 -0.1,0.1 H 76 75.8 75.6 m -8.9,-59.5 0.2,0.5 0.2,0.6 0.2,0.5 0.2,0.6 0.2,0.6 0.2,0.5 0.1,0.6 0.2,0.6"
           style="fill:none;stroke:#000000;stroke-width:0.709;stroke-linecap:round;stroke-linejoin:round;stroke-miterlimit:10;stroke-dasharray:none;stroke-opacity:1"
           id="path258" />
      </g>
      <g
         id="g260"
         transform="translate(955.3,499.5)">
        <path
           d="m 0,0 h -141.7 m 0,-33.1 H 0 m 0,54.7 h -141.7 m 0,-76.3 H 0 m 0,95.3 h -141.7 m 0,-114.2 H 0 M 0,54.1 h -141.7 m 0,-141.2 H 0 M 0,60.8 h -141.7 m 0,-154.7 H 0 M -141.7,-6.6 H 0 m 0,0 V -6.8 -7 -7.2 -7.4 -7.6 -7.7 -7.9 -8 m 0,0 h -141.7 m 0,0 v 0.1 0.2 0.1 0.2 0.2 0.2 0.2 0.2 m 0,-18.5 H 0 m 0,-1.3 h -141.7 m 0,0 v 0.2 0.2 0.2 0.1 0.2 0.2 0.1 0.1 m 141.7,0 v -0.1 -0.1 -0.2 -0.2 -0.1 -0.2 -0.2 -0.2 m 0,24.3 h -141.7 m 0,-4.5 v 0.5 0.6 0.6 0.6 0.5 0.6 0.6 0.5 M 0,-6.6 v 0.5 0.6 0.6 0.6 0.5 0.6 0.6 0.5 M -141.7,-31 H 0 m -141.7,0 v 0.6 0.5 0.6 0.6 0.5 0.6 0.6 0.6 M 0,-31 v 0.6 0.5 0.6 0.6 0.5 0.6 0.6 0.6 m -141.7,13.7 H 0 m -141.7,0 v 0.2 0.2 0.3 0.3 0.4 0.4 0.5 0.5 0.6 0.6 0.7 M 0,-12.7 v 0.2 0.2 0.3 0.3 0.4 0.4 0.5 0.5 0.6 0.6 0.7 m 0,-12.4 h -141.7 m 0,0 v -0.1 -0.3 -0.2 -0.4 -0.3 -0.5 -0.4 -0.6 -0.6 -0.6 -0.7 M 0,-20.4 v -0.1 -0.3 -0.2 -0.4 -0.3 -0.5 -0.4 -0.6 -0.6 -0.6 -0.7 m 0,-7 h -141.7 m 0,0 v 0 0.1 0.2 0.1 0.1 0.2 0.2 0.2 M 0,-31 v -0.2 -0.2 -0.2 -0.1 -0.1 -0.2 -0.1 M -141.7,-0.9 H 0 m -141.7,-1.2 v 0.2 0.2 0.2 0.2 0.1 0.1 0.1 0.1 M 0,-0.9 V -1 -1.1 -1.2 -1.3 -1.5 -1.7 -1.9 -2.1 M -141.7,0 V 0 -0.1 -0.2 -0.4 -0.6 -0.9 M 0,0 v 0 -0.1 -0.1 -0.2 -0.2 -0.3 m -141.7,-32.2 v 0 0.1 0.2 0.1 0.3 0.3 M 0,-33.1 v 0 0.1 0.2 0.1 0.3 0.3 M -141.7,16.8 H 0 m 0,-1.5 h -141.7 m 0,0 v 0.1 0.2 0.2 0.2 0.2 0.2 0.2 0.2 M 0,16.8 V 16.6 16.4 16.2 16 15.8 15.6 15.4 15.3 M -141.7,-48.3 H 0 m 0,-1.5 h -141.7 m 0,0 v 0.1 0.2 0.2 0.2 0.2 0.2 0.2 0.2 m 141.7,0 v -0.2 -0.2 -0.2 -0.2 -0.2 -0.2 -0.2 -0.1 m 0,70.7 h -141.7 m 0,-4.1 v 0.5 0.5 0.5 0.6 0.5 0.5 0.5 0.5 M 0,16.8 v 0.5 0.5 0.5 0.6 0.5 0.5 0.5 0.5 M -141.7,-54 H 0 m -141.7,0 v 0.5 0.6 0.5 0.5 0.5 0.5 0.5 0.6 M 0,-54 v 0.5 0.6 0.5 0.5 0.5 0.5 0.5 0.6 M -141.7,6.7 H 0 m -141.7,0 v 0.5 0.6 0.7 0.7 0.7 0.8 0.8 0.9 0.9 1 1 M 0,6.7 v 0.5 0.6 0.7 0.7 0.7 0.8 0.8 0.9 0.9 1 1 m 0,-55 h -141.7 m 0,0 v -0.6 -0.6 -0.6 -0.7 -0.8 -0.8 -0.8 -0.9 -0.9 -0.9 -1 M 0,-39.7 v -0.6 -0.6 -0.6 -0.7 -0.8 -0.8 -0.8 -0.9 -0.9 -0.9 -1 m -141.7,69.2 v 0.2 0.1 0.2 0.1 0.1 M 0,21.6 v 0 -0.1 -0.1 -0.2 -0.1 -0.2 m -141.7,-75.6 v 0 0.1 0.1 0.1 0.1 0.2 0.1 M 0,-54 v -0.1 -0.2 -0.1 -0.1 -0.1 -0.1 m 0,40.6 h -141.7 m 0,0 v 0.2 0.3 0.2 0.2 0.2 0.2 0.1 m 141.7,0 v 0 -0.1 -0.2 -0.2 -0.2 -0.2 -0.3 -0.2 m -141.7,-4.8 H 0 m -141.7,-1.5 v 0.1 0.1 0.1 0.2 0.2 0.3 0.2 0.3 m 141.7,0 v -0.3 -0.2 -0.3 -0.2 -0.2 -0.1 -0.1 -0.1 m -141.7,1.5 v 0.6 0.6 0.6 0.6 0.6 0.6 0.6 0.6 M 0,-18.9 v 0.6 0.6 0.6 0.6 0.6 0.6 0.6 0.6 m 0,-19.3 h -141.7 m 0,0 v 0.2 0.1 m 141.7,0 v -0.1 -0.2 M -141.7,0.3 H 0 M -141.7,0 V 0.1 0.3 M 0,0.3 V 0.1 0 m 0,4.9 h -141.7 m 0,-4.6 V 0.9 1.5 2.1 2.6 3.2 3.8 4.3 4.9 M 0,0.3 V 0.9 1.5 2.1 2.6 3.2 3.8 4.3 4.9 M -141.7,-37.9 H 0 m -141.7,0 v 0.5 0.6 0.5 0.6 0.6 0.5 0.6 0.6 M 0,-37.9 v 0.5 0.6 0.5 0.6 0.6 0.5 0.6 0.6 M -141.7,4.9 V 5.1 5.4 5.7 5.9 6.2 6.4 6.5 6.7 M 0,6.7 V 6.5 6.4 6.2 5.9 5.7 5.4 5.1 4.9 m -141.7,-44.6 v 0.1 0.2 0.2 0.2 0.3 0.2 0.3 0.3 m 141.7,0 v -0.3 -0.3 -0.2 -0.3 -0.2 -0.2 -0.2 -0.1 M -141.7,36.9 H 0 m 0,-1.5 h -141.7 m 0,0 v 0.2 0.2 0.2 0.2 0.2 0.2 0.2 0.1 M 0,36.9 V 36.8 36.6 36.4 36.2 36 35.8 35.6 35.4 M -141.7,-68.5 H 0 M 0,-70 h -141.7 m 0,0 v 0.2 0.1 0.2 0.2 0.2 0.2 0.2 0.2 m 141.7,0 v -0.2 -0.2 -0.2 -0.2 -0.2 -0.2 -0.1 -0.2 M -141.7,23.8 H 0 m -141.7,0 v 0.8 1 0.9 1.1 1 1.1 1.1 1.1 1.2 1.1 1.2 M 0,23.8 v 0.8 1 0.9 1.1 1 1.1 1.1 1.1 1.2 1.1 1.2 m 0,-92.2 h -141.7 m 0,0 v -0.9 -0.9 -1 -1 -1.1 -1 -1.1 -1.2 -1.1 -1.2 -1.2 M 0,-56.8 v -0.9 -0.9 -1 -1 -1.1 -1 -1.1 -1.2 -1.1 -1.2 -1.2 m -141.7,-4.8 H 0 m -141.7,0 v 0.4 0.4 0.4 0.4 0.5 0.4 0.4 0.4 M 0,-73.3 v 0.4 0.4 0.4 0.4 0.5 0.4 0.4 0.4 M 0,40.2 h -141.7 m 0,-3.3 v 0.4 0.5 0.4 0.4 0.4 0.4 0.4 0.4 M 0,36.9 v 0.4 0.5 0.4 0.4 0.4 0.4 0.4 0.4 m -141.7,0 v 0.1 0.1 0.1 0.1 M 0,40.6 v 0 -0.1 -0.1 -0.1 -0.1 M -141.7,-73.6 v 0 0.1 0.1 0.1 m 141.7,0 v -0.1 -0.1 -0.1 m 0,95.4 h -141.7 m 0,-0.2 v 0.2 M 0,21.6 v 0.2 M -141.7,-54.9 H 0 m -141.7,0 v 0.2 M 0,-54.9 v 0.2 m -141.7,76.5 v 0.2 0.3 0.3 0.2 0.3 0.2 0.3 0.2 M 0,23.8 V 23.6 23.3 23.1 22.8 22.6 22.3 22 21.8 m -141.7,-78.6 v 0.2 0.2 0.3 0.2 0.3 0.2 0.3 0.2 m 141.7,0 v -0.2 -0.3 -0.2 -0.3 -0.2 -0.3 -0.2 -0.2 M -141.7,51.8 H 0 m 0,-1.3 h -141.7 m 0,0 v 0.2 0.2 0.2 0.2 0.2 0.1 0.1 0.1 M 0,51.8 V 51.7 51.6 51.5 51.3 51.1 50.9 50.7 50.5 M -141.7,-83.6 H 0 m 0,-1.3 h -141.7 m 0,0 v 0.1 0.1 0.2 0.2 0.1 0.2 0.2 0.2 m 141.7,0 v -0.2 -0.2 -0.2 -0.1 -0.2 -0.2 -0.1 -0.1 M -141.7,40.6 v 1 1.2 1.3 1.3 1.2 1.3 1.3 1.3 M 0,40.6 v 1 1.2 1.3 1.3 1.2 1.3 1.3 1.3 M -141.7,-73.6 v -1.1 -1.2 -1.2 -1.3 -1.3 -1.3 -1.3 -1.3 M 0,-73.6 v -1.1 -1.2 -1.2 -1.3 -1.3 -1.3 -1.3 -1.3 M 0,53.9 h -141.7 m 0,-2.1 v 0.3 0.3 0.3 0.2 0.3 0.2 0.3 0.2 M 0,51.8 v 0.3 0.3 0.3 0.2 0.3 0.2 0.3 0.2 M -141.7,-87 H 0 m -141.7,0 v 0.2 0.3 0.3 0.2 0.3 0.2 0.3 0.3 M 0,-87 v 0.2 0.3 0.3 0.2 0.3 0.2 0.3 0.3 M -141.7,53.9 V 54 54.1 M 0,54.1 v 0 -0.1 -0.1 m -141.7,-141 v 0 0.1 M 0,-87 v -0.1 M 0,59 h -141.7 m 0,-4.9 v 1.1 1.3 1.3 1.2 M 0,54.1 v 1.1 1.3 1.3 1.2 M -141.7,-92.1 H 0 m -141.7,5 v -1.1 -1.3 -1.3 -1.3 m 141.7,5 v -1.1 -1.3 -1.3 -1.3 M -141.7,60.1 H 0 M -141.7,59 v 0.2 0.2 0.2 0.1 0.1 0.1 0.1 0.1 M 0,60.1 V 60 59.9 59.8 59.7 59.6 59.4 59.2 59 M 0,-93.1 h -141.7 m 0,0 v 0 0.1 0.1 0.1 0.2 0.1 0.2 0.2 m 141.7,0 v -0.2 -0.2 -0.1 -0.2 -0.1 -0.1 -0.1 M 0,60.8 h -141.7 m 0,-0.7 v 0.1 0.1 0.1 0.1 0.1 0.1 0.1 M 0,60.1 v 0.1 0.1 0.1 0.1 0.1 0.1 0.1 M -141.7,-93.9 H 0 m -141.7,0 v 0.1 0.1 0.1 0.1 0.1 0.1 0.1 0.1 M 0,-93.9 v 0.1 0.1 0.1 0.1 0.1 0.1 0.1 0.1 M -141.7,60.8 v 0 M 0,60.8 v 0 M -141.7,-93.9 v 0 m 141.7,0 v 0"
           style="fill:none;stroke:#000000;stroke-width:0.709;stroke-linecap:round;stroke-linejoin:round;stroke-miterlimit:10;stroke-dasharray:none;stroke-opacity:1"
           id="path262" />
      </g>
    </g>
  </g>
</svg>
