<?xml version="1.0" encoding="UTF-8" standalone="no"?>
<svg
   xmlns:dc="http://purl.org/dc/elements/1.1/"
   xmlns:cc="http://creativecommons.org/ns#"
   xmlns:rdf="http://www.w3.org/1999/02/22-rdf-syntax-ns#"
   xmlns:svg="http://www.w3.org/2000/svg"
   xmlns="http://www.w3.org/2000/svg"
   xmlns:sodipodi="http://sodipodi.sourceforge.net/DTD/sodipodi-0.dtd"
   xmlns:inkscape="http://www.inkscape.org/namespaces/inkscape"
   width="420mm"
   height="297mm"
   viewBox="0 0 420 297"
   version="1.1"
   id="svg12823"
   inkscape:version="1.0.1 (3bc2e813f5, 2020-09-07)"
   sodipodi:docname="IMD-HOLD-01.svg">
  <defs
     id="defs12817" />
  <sodipodi:namedview
     id="base"
     pagecolor="#ffffff"
     bordercolor="#666666"
     borderopacity="1.0"
     inkscape:pageopacity="0.0"
     inkscape:pageshadow="2"
     inkscape:zoom="0.35"
     inkscape:cx="400"
     inkscape:cy="560"
     inkscape:document-units="mm"
     inkscape:current-layer="layer1"
     inkscape:document-rotation="0"
     showgrid="false"
     inkscape:showpageshadow="false"
     inkscape:snap-bbox="true"
     inkscape:snap-page="true"
     inkscape:bbox-paths="true"
     inkscape:bbox-nodes="true"
     inkscape:snap-bbox-midpoints="true"
     inkscape:snap-bbox-edge-midpoints="true"
     inkscape:window-width="1920"
     inkscape:window-height="1020"
     inkscape:window-x="-9"
     inkscape:window-y="-9"
     inkscape:window-maximized="1" />
  <metadata
     id="metadata12820">
    <rdf:RDF>
      <cc:Work
         rdf:about="">
        <dc:format>image/svg+xml</dc:format>
        <dc:type
           rdf:resource="http://purl.org/dc/dcmitype/StillImage" />
        <dc:title />
      </cc:Work>
    </rdf:RDF>
  </metadata>
  <g
     inkscape:label="Layer 1"
     inkscape:groupmode="layer"
     id="layer1">
    <g
       id="g80"
       inkscape:label="IMD-HOLD-01"
       transform="matrix(0.37007337,0,0,-0.37778224,-10.284773,307.50687)">
      <text
         transform="matrix(0,1.000301,1,0,453.9059,294.13144)"
         style="font-variant:normal;font-weight:normal;font-stretch:normal;font-size:13.2283px;font-family:'Century Gothic';-inkscape-font-specification:CenturyGothic;writing-mode:lr-tb;fill:#808080;fill-opacity:1;fill-rule:nonzero;stroke:none"
         id="text84"><tspan
           x="0 7.3306842 14.661368 21.992052 25.657394 32.988079 40.318764"
           y="0"
           sodipodi:role="line"
           id="tspan82">613.00</tspan></text>
      <text
         transform="matrix(1.000301,0,0,-1,278.88314,199.8004)"
         style="font-variant:normal;font-weight:normal;font-stretch:normal;font-size:13.2283px;font-family:'Century Gothic';-inkscape-font-specification:CenturyGothic;writing-mode:lr-tb;fill:#808080;fill-opacity:1;fill-rule:nonzero;stroke:none"
         id="text88"><tspan
           x="0 7.3306842 14.661368 21.992052 25.657394 32.988079 40.318764"
           y="0"
           sodipodi:role="line"
           id="tspan86">600.00</tspan></text>
      <text
         transform="matrix(0,1.000301,1,0,437.1122,566.29434)"
         style="font-variant:normal;font-weight:normal;font-stretch:normal;font-size:13.2283px;font-family:'Century Gothic';-inkscape-font-specification:CenturyGothic;writing-mode:lr-tb;fill:#808080;fill-opacity:1;fill-rule:nonzero;stroke:none"
         id="text92"><tspan
           x="0 7.3306842 14.661368 21.992052 29.322737 32.988079 40.318764 47.649445"
           y="0"
           sodipodi:role="line"
           id="tspan90">1600.00</tspan></text>
      <text
         transform="matrix(0,1.000141,1,0,1007.5033,337.00763)"
         style="font-variant:normal;font-weight:normal;font-stretch:normal;font-size:13.2283px;font-family:'Century Gothic';-inkscape-font-specification:CenturyGothic;writing-mode:lr-tb;fill:#808080;fill-opacity:1;fill-rule:nonzero;stroke:none"
         id="text96"><tspan
           x="0 7.3295116 14.659023 21.988535 25.65329 32.982803 40.312313 43.97707 52.04747 59.37698"
           y="0"
           sodipodi:role="line"
           id="tspan94">400.00 n6</tspan></text>
      <text
         transform="matrix(1.000301,0,0,-1,824.62574,396.0309)"
         style="font-variant:normal;font-weight:normal;font-stretch:normal;font-size:13.2283px;font-family:'Century Gothic';-inkscape-font-specification:CenturyGothic;writing-mode:lr-tb;fill:#808080;fill-opacity:1;fill-rule:nonzero;stroke:none"
         id="text100"><tspan
           x="0 7.3306842 14.661368 21.992052 29.322737 32.988079 40.318764 47.649445"
           y="0"
           sodipodi:role="line"
           id="tspan98">1200.00</tspan></text>
      <text
         transform="matrix(1.000045,0,0,-1,964.34194,132.36442)"
         style="font-variant:normal;font-weight:normal;font-stretch:normal;font-size:13.2283px;font-family:'Century Gothic';-inkscape-font-specification:CenturyGothic;writing-mode:lr-tb;fill:#000000;fill-opacity:1;fill-rule:nonzero;stroke:none"
         id="text104"><tspan
           x="0 8.6649265 18.454309 24.566059 31.656746 38.244736 44.832726 48.497131 59.993038 65.628548 74.663887 81.75457 89.784515 102.48425 105.47398 112.06197 119.15266 122.81706 129.40506 137.23656 144.32724 155.08234 158.07207 164.48808 167.47781 174.5685"
           y="0"
           sodipodi:role="line"
           id="tspan102">UNLESS OTHERWISE SPECIFIED</tspan></text>
      <g
         id="g106"
         transform="translate(964.338,130.9249)">
        <path
           d="M 0,0 H 184.411"
           style="fill:none;stroke:#000000;stroke-width:0.602;stroke-linecap:butt;stroke-linejoin:miter;stroke-miterlimit:10;stroke-dasharray:none;stroke-opacity:1"
           id="path108" />
      </g>
      <text
         transform="matrix(1.000083,0,0,-1,964.338,119.5322)"
         style="font-variant:normal;font-weight:normal;font-stretch:normal;font-size:13.2283px;font-family:'Century Gothic';-inkscape-font-specification:CenturyGothic;writing-mode:lr-tb;fill:#000000;fill-opacity:1;fill-rule:nonzero;stroke:none"
         id="text112"><tspan
           x="0 8.0567036 11.721247 18.984186 22.648729 29.977816 33.642361 40.971447 73.952332 83.742088 93.531845 105.06788 111.17986 118.27082 124.85905 128.52361 135.78654 139.45108 146.78017 150.44472 157.7738 167.61647 174.70743"
           y="0"
           sodipodi:role="line"
           id="tspan110">X ± 0.5 ANGLES ± 0.5DEG</tspan></text>
      <text
         transform="matrix(1.00028,0,0,-1,964.338,106.70075)"
         style="font-variant:normal;font-weight:normal;font-stretch:normal;font-size:13.2283px;font-family:'Century Gothic';-inkscape-font-specification:CenturyGothic;writing-mode:lr-tb;fill:#000000;fill-opacity:1;fill-rule:nonzero;stroke:none"
         id="text116"><tspan
           x="0 6.3513618 10.016627 16.367989 20.033255 27.297625 30.962889 38.293419 41.958683"
           y="0"
           sodipodi:role="line"
           id="tspan114">x.x ± 0.3</tspan></text>
      <text
         transform="matrix(1.000297,0,0,-1,964.338,93.869298)"
         style="font-variant:normal;font-weight:normal;font-stretch:normal;font-size:13.2283px;font-family:'Century Gothic';-inkscape-font-specification:CenturyGothic;writing-mode:lr-tb;fill:#000000;fill-opacity:1;fill-rule:nonzero;stroke:none"
         id="text120"><tspan
           x="0 6.35147 10.016797 16.368267 22.719736 26.385065 33.649559 37.314884 44.645538 48.310867"
           y="0"
           sodipodi:role="line"
           id="tspan118">x.xx ± 0.1</tspan></text>
      <text
         transform="matrix(1.00031,0,0,-1,964.338,81.037847)"
         style="font-variant:normal;font-weight:normal;font-stretch:normal;font-size:13.2283px;font-family:'Century Gothic';-inkscape-font-specification:CenturyGothic;writing-mode:lr-tb;fill:#000000;fill-opacity:1;fill-rule:nonzero;stroke:none"
         id="text124"><tspan
           x="0 6.3515525 10.016928 16.368481 22.720032 29.071585 32.736961 40.001549 43.666924 50.997673 54.663048 61.993797"
           y="0"
           sodipodi:role="line"
           id="tspan122">x.xxx ± 0.05</tspan></text>
      <text
         transform="matrix(0.99995,0,0,-1,964.338,55.374945)"
         style="font-variant:normal;font-weight:normal;font-stretch:normal;font-size:13.2283px;font-family:'Century Gothic';-inkscape-font-specification:CenturyGothic;writing-mode:lr-tb;fill:#000000;fill-opacity:1;fill-rule:nonzero;stroke:none"
         id="text128"><tspan
           x="0 6.5873642 15.621841 25.410294 33.439472 41.270233 44.934288 52.024303 61.865665 73.400169 80.490181 87.077545 90.7416 100.53005 110.3185 120.15987 123.82392 134.57799 146.07281 154.10199 163.89044 170.98045 179.00963 185.597"
           y="0"
           sodipodi:role="line"
           id="tspan126">SHARP EDGES AND CORNERS</tspan></text>
      <text
         transform="matrix(1.000089,0,0,-1,964.338,42.543494)"
         style="font-variant:normal;font-weight:normal;font-stretch:normal;font-size:13.2283px;font-family:'Century Gothic';-inkscape-font-specification:CenturyGothic;writing-mode:lr-tb;fill:#000000;fill-opacity:1;fill-rule:nonzero;stroke:none"
         id="text132"><tspan
           x="0 8.0302925 15.359424 19.023989 26.353119 38.511009 50.6689 54.333462 65.82988 73.860168 77.524734 84.853867 88.518433 95.847565 108.00546 120.16335 123.82791 130.17805 133.84262 141.17175 148.50089 158.34361 165.43462 176.97072"
           y="0"
           sodipodi:role="line"
           id="tspan130">R0.3MM OR 0.3MM x 45DEG</tspan></text>
      <text
         transform="matrix(0.999705,0,0,-1,786.58933,42.543494)"
         style="font-variant:normal;font-weight:normal;font-stretch:normal;font-size:13.2283px;font-family:'Century Gothic';-inkscape-font-specification:CenturyGothic;writing-mode:lr-tb;fill:#000000;fill-opacity:1;fill-rule:nonzero;stroke:none"
         id="text136"><tspan
           x="0 9.7860546 15.895726 22.005398 25.668556 35.507507 38.496223 50.649445 57.73772 67.523773 74.109528 77.098236 88.59024 98.376297 104.96204 108.62521 111.61391 121.39997 125.06313 137.21635"
           y="0"
           sodipodi:role="line"
           id="tspan134">ALL DIMENSIONS IN MM</tspan></text>
      <text
         transform="matrix(0.99994,0,0,-1,682.07253,42.543494)"
         style="font-variant:normal;font-weight:normal;font-stretch:normal;font-size:13.2283px;font-family:'Century Gothic';-inkscape-font-specification:CenturyGothic;writing-mode:lr-tb;fill:#000000;fill-opacity:1;fill-rule:nonzero;stroke:none"
         id="text140"><tspan
           x="0 6.5872979 17.341261 27.129616 33.240723 40.330666 43.994686 47.658707 54.986744 58.650764 65.978798"
           y="0"
           sodipodi:role="line"
           id="tspan138">SCALE: 1:20</tspan></text>
      <g
         id="g142"
         transform="translate(343.6,196.9)">
        <path
           d="M 0,0 -9.4,-1.5 V 1.4 L 0,0 m -85.1,0 9.4,1.4 V -1.5 L -85.1,0"
           style="fill:none;stroke:#808080;stroke-width:0.51;stroke-linecap:butt;stroke-linejoin:miter;stroke-miterlimit:10;stroke-dasharray:none;stroke-opacity:1"
           id="path144" />
      </g>
      <g
         id="g146"
         transform="translate(769.7,393.1)">
        <path
           d="M 0,0 9.4,1.4 V -1.4 L 0,0 m 170.1,0 -9.4,-1.4 V 1.4 L 170.1,0"
           style="fill:none;stroke:#808080;stroke-width:0.51;stroke-linecap:butt;stroke-linejoin:miter;stroke-miterlimit:10;stroke-dasharray:none;stroke-opacity:1"
           id="path148" />
      </g>
      <g
         id="g150"
         transform="translate(456.7,271.2)">
        <path
           d="M 0,0 -1.4,9.4 H 1.5 L 0,0 M 0,86.9 1.5,77.5 H -1.4 L 0,86.9 m -16.8,117.4 -1.4,9.4 h 2.9 l -1.5,-9.4 m 0,226.8 1.5,-9.4 h -2.9 l 1.4,9.4"
           style="fill:none;stroke:#808080;stroke-width:0.51;stroke-linecap:butt;stroke-linejoin:miter;stroke-miterlimit:10;stroke-dasharray:none;stroke-opacity:1"
           id="path152" />
      </g>
      <g
         id="g154"
         transform="translate(1010.3,327.9)">
        <path
           d="M 0,0 1.5,-9.3 H -1.4 L 0,0 m 0,-56.7 -1.4,9.4 H 1.5 L 0,-56.7"
           style="fill:none;stroke:#808080;stroke-width:0.51;stroke-linecap:butt;stroke-linejoin:miter;stroke-miterlimit:10;stroke-dasharray:none;stroke-opacity:1"
           id="path156" />
      </g>
      <g
         id="g158"
         transform="translate(956.9,148)">
        <path
           d="M 0,0 V -112.5 M 0,0 H 198 M 0,-112.5 H 198 M 198,0 v -112.5"
           style="fill:none;stroke:#c0c0c0;stroke-width:0.51;stroke-linecap:round;stroke-linejoin:round;stroke-miterlimit:10;stroke-dasharray:none;stroke-opacity:1"
           id="path160" />
      </g>
      <g
         id="g162"
         transform="translate(28.3,28.3)">
        <path
           d="m 0,0 v 785.2 m 0,0 h 1133.9 m 0,0 V 0 m 0,0 H 0"
           style="fill:none;stroke:#c0c0c0;stroke-width:0.992;stroke-linecap:round;stroke-linejoin:round;stroke-miterlimit:10;stroke-dasharray:none;stroke-opacity:1"
           id="path164" />
      </g>
      <g
         id="g166"
         transform="translate(343.6,268.4)">
        <path
           d="M 0,0 V -74.4 M -85.1,0 V -74.4 M 0,-71.5 h -85.1"
           style="fill:none;stroke:#808080;stroke-width:0.51;stroke-linecap:round;stroke-linejoin:round;stroke-miterlimit:10;stroke-dasharray:none;stroke-opacity:1"
           id="path168" />
      </g>
      <g
         id="g170"
         transform="translate(769.7,360.9)">
        <path
           d="M 0,0 V 35 M 170.1,-30.2 V 35 M 0,32.2 h 170.1"
           style="fill:none;stroke:#808080;stroke-width:0.51;stroke-linecap:round;stroke-linejoin:round;stroke-miterlimit:10;stroke-dasharray:none;stroke-opacity:1"
           id="path172" />
      </g>
      <g
         id="g174"
         transform="translate(346.4,271.2)">
        <path
           d="M 0,0 H 113.2 M 0,86.9 H 113.2 M 110.3,0 V 86.9 M 0,204.3 H 96.4 M 0,431.1 H 96.4 M 93.5,204.3 v 226.8"
           style="fill:none;stroke:#808080;stroke-width:0.51;stroke-linecap:round;stroke-linejoin:round;stroke-miterlimit:10;stroke-dasharray:none;stroke-opacity:1"
           id="path176" />
      </g>
      <g
         id="g178"
         transform="translate(942.6,327.9)">
        <path
           d="M 0,0 H 70.6 M 0,-56.7 H 70.6 M 67.7,0 V 72.1 M 67.7,0 v -56.7"
           style="fill:none;stroke:#808080;stroke-width:0.51;stroke-linecap:round;stroke-linejoin:round;stroke-miterlimit:10;stroke-dasharray:none;stroke-opacity:1"
           id="path180" />
      </g>
      <g
         id="g182"
         transform="translate(343.6,196.9)">
        <path
           d="M 0,0 -9.4,-1.5 V 1.4 M -85.1,0 l 9.4,1.4 v -2.9"
           style="fill:#808080;fill-opacity:1;fill-rule:nonzero;stroke:none"
           id="path184" />
      </g>
      <g
         id="g186"
         transform="translate(769.7,393.1)">
        <path
           d="M 0,0 9.4,1.4 V -1.4 M 170.1,0 160.7,-1.4 v 2.8"
           style="fill:#808080;fill-opacity:1;fill-rule:nonzero;stroke:none"
           id="path188" />
      </g>
      <g
         id="g190"
         transform="translate(456.7,271.2)">
        <path
           d="M 0,0 -1.4,9.4 H 1.5 M 0,86.9 1.5,77.5 h -2.9 m -15.4,126.8 -1.4,9.4 h 2.9 m -1.5,217.4 1.5,-9.4 h -2.9"
           style="fill:#808080;fill-opacity:1;fill-rule:nonzero;stroke:none"
           id="path192" />
      </g>
      <g
         id="g194"
         transform="translate(1010.3,327.9)">
        <path
           d="M 0,0 1.5,-9.3 H -1.4 M 0,-56.7 -1.4,-47.3 H 1.5"
           style="fill:#808080;fill-opacity:1;fill-rule:nonzero;stroke:none"
           id="path196" />
      </g>
      <g
         id="g198"
         transform="translate(343.6,358.1)">
        <path
           d="M 0,0 H -85.1 M 0,-86.9 V 0 M -85.1,-86.9 V 0 M 0,-86.9 h -85.1"
           style="fill:none;stroke:#000000;stroke-width:0.709;stroke-linecap:round;stroke-linejoin:round;stroke-miterlimit:10;stroke-dasharray:none;stroke-opacity:1"
           id="path200" />
      </g>
      <g
         id="g202"
         transform="translate(343.6065,327.9611)">
        <path
           d="M 0,0 H -85.039"
           style="fill:none;stroke:#000000;stroke-width:0.51;stroke-linecap:round;stroke-linejoin:round;stroke-miterlimit:10;stroke-dasharray:3.6, 1.8;stroke-dashoffset:-0.22;stroke-opacity:1"
           id="path204" />
      </g>
      <g
         id="g206"
         transform="translate(343.6,532.2)">
        <path
           d="M 0,0 H -85.1 M 0,-56.7 h -85.1 m 0,0 V 0 M 0,-56.7 V 0 M 0,170.1 H -85.1 M -85.1,0 V 170.1 M 0,0 v 170.1"
           style="fill:none;stroke:#000000;stroke-width:0.709;stroke-linecap:round;stroke-linejoin:round;stroke-miterlimit:10;stroke-dasharray:none;stroke-opacity:1"
           id="path208" />
      </g>
      <g
         id="g210"
         transform="translate(939.8,271.2)">
        <path
           d="m 0,0 h -226.8 m 0,0 v 86.9 m 0,0 h 56.7 m 0,0 V 56.7 M 0,56.7 V 0 M -170.1,56.7 H 0"
           style="fill:none;stroke:#000000;stroke-width:0.709;stroke-linecap:round;stroke-linejoin:round;stroke-miterlimit:10;stroke-dasharray:none;stroke-opacity:1"
           id="path212" />
      </g>
    </g>
  </g>
</svg>
